<?xml version="1.0" encoding="UTF-8"?>
<svg width="40px" height="40px" viewBox="0 0 40 40" version="1.1" xmlns="http://www.w3.org/2000/svg" xmlns:xlink="http://www.w3.org/1999/xlink">
    <title>编组 5</title>
    <defs>
        <linearGradient x1="0%" y1="0%" x2="100%" y2="100%" id="linearGradient-1">
            <stop stop-color="#1591FF" offset="0%"></stop>
            <stop stop-color="#0065F3" offset="100%"></stop>
        </linearGradient>
    </defs>
    <g id="首页-消息" stroke="none" stroke-width="1" fill="none" fill-rule="evenodd">
        <g id="消息备份" transform="translate(-16, -970)">
            <g id="编组" transform="translate(0, 958)">
                <g id="编组-5" transform="translate(16, 12)">
                    <circle id="椭圆形" fill="url(#linearGradient-1)" cx="20" cy="20" r="20"></circle>
                    <g id="microphone" transform="translate(6, 6)">
                        <path d="M3.32682292,14.9090885 L3.32682292,12.715755 C3.32682292,12.260755 3.70015631,11.8990885 4.14348964,11.8990885 C4.58682297,11.8990885 4.96015636,12.2724217 4.96015636,12.715755 L4.96015636,14.9090885 C4.96015636,19.8907551 9.00848889,23.9390893 13.9901555,23.9390893 C18.9718222,23.9390893 23.0201553,19.8907551 23.0201553,14.9090885 L23.0201553,12.715755 C23.0201553,12.260755 23.3934895,11.8990885 23.8368228,11.8990885 C24.2801562,11.8990885 24.6535727,12.2724217 24.6535727,12.715755 L24.6535727,14.9090885 C24.6768215,20.8007553 19.8818224,25.5840891 14.0018225,25.5840891 C8.12182252,25.5840891 3.32682292,20.8007553 3.32682292,14.9090885 Z" id="Vector" fill="#FFFFFF" fill-rule="nonzero"></path>
                        <path d="M6.88151042,9.45000045 L6.88151042,14.9216666 C6.88151042,18.8416665 10.0781771,22.0383326 13.998177,22.0383326 C17.9181768,22.0383326 21.1148446,18.8416665 21.1148446,14.9216666 L21.1148446,9.45000045 C21.1148446,5.53000057 17.9181768,2.33333333 13.998177,2.33333333 C10.0781771,2.33333333 6.88151042,5.53000057 6.88151042,9.45000045 Z M15.8531772,12.88 C15.7948438,12.88 15.724844,12.8683339 15.6665107,12.8566672 C14.4765107,12.5300005 13.2165108,12.5300005 12.0265108,12.8566672 C11.6415108,12.9616672 11.2565108,12.7400002 11.1515108,12.3550002 C11.0465108,11.9816669 11.2681767,11.5850002 11.6531767,11.4800002 C13.0881767,11.0833335 14.6048436,11.0833335 16.0398436,11.4800002 C16.4248437,11.5850002 16.6465112,11.9700002 16.5415112,12.3550002 C16.4598446,12.6700002 16.1681772,12.88 15.8531772,12.88 Z M16.8681765,9.59000031 C16.7865098,9.59000031 16.7048442,9.57833369 16.6231775,9.54333369 C14.8381776,8.89000035 12.8781772,8.89000035 11.0931772,9.54333369 C10.7198439,9.68333369 10.3115106,9.49666686 10.1715106,9.12333353 C10.0431773,8.76166686 10.2298438,8.35333329 10.6031772,8.21333329 C12.7031771,7.45499998 15.0131774,7.45499998 17.1015107,8.21333329 C17.474844,8.35333329 17.6615094,8.76166686 17.5331761,9.12333353 C17.4281761,9.4150002 17.1598431,9.59000031 16.8681765,9.59000031 Z" id="Vector" fill="#FFFFFF"></path>
                        <path d="M28,0 L28,28 L0,28 L0,0 L28,0 Z" id="Vector" opacity="0"></path>
                    </g>
                </g>
            </g>
        </g>
    </g>
</svg>