<?xml version="1.0" encoding="UTF-8"?>
<svg width="26px" height="26px" viewBox="0 0 26 26" version="1.1" xmlns="http://www.w3.org/2000/svg" xmlns:xlink="http://www.w3.org/1999/xlink">
    <title>emoji</title>
    <g id="首页-消息" stroke="none" stroke-width="1" fill="none" fill-rule="evenodd">
        <g id="消息备份" transform="translate(-291, -977)">
            <g id="编组" transform="translate(0, 958)">
                <g id="emoji" transform="translate(291, 19)">
                    <circle id="椭圆形" stroke="#000000" stroke-width="2" cx="13" cy="13" r="12"></circle>
                    <path d="M17.0833333,11.375 C16.116835,11.375 15.3333333,10.5914983 15.3333333,9.625 C15.3333333,8.65850167 16.116835,7.875 17.0833333,7.875 C18.0498317,7.875 18.8333333,8.65850167 18.8333333,9.625 C18.8333333,10.5914983 18.0498317,11.375 17.0833333,11.375 Z" id="Vector" fill="#000000"></path>
                    <path d="M8.91666667,11.375 C7.95016834,11.375 7.16666667,10.5914983 7.16666667,9.625 C7.16666667,8.65850167 7.95016834,7.875 8.91666667,7.875 C9.88316499,7.875 10.6666667,8.65850167 10.6666667,9.625 C10.6666667,10.5914983 9.88316499,11.375 8.91666667,11.375 Z" id="Vector" fill="#000000"></path>
                    <path d="M17.2000004,14.5167236 C17.7833338,14.5167236 18.25,14.9611676 18.25,15.5167236 C18.25,18.2833895 15.905,20.5167236 13,20.5167236 C10.095,20.5167236 7.75,18.2833895 7.75,15.5167236 C7.75,14.9611676 8.21666622,14.5167236 8.79999955,14.5167236 L17.2000004,14.5167236 Z" id="Vector" stroke="#000000" stroke-width="2" stroke-linecap="round" stroke-linejoin="round" stroke-dasharray="0,0" fill-rule="nonzero"></path>
                </g>
            </g>
        </g>
    </g>
</svg>