<?xml version="1.0" encoding="UTF-8"?>
<svg width="40px" height="40px" viewBox="0 0 40 40" version="1.1" xmlns="http://www.w3.org/2000/svg" xmlns:xlink="http://www.w3.org/1999/xlink">
    <title>gallery</title>
    <defs>
        <path d="M13.0166666,3.33333333 C6.94999973,3.33333333 3.33333333,6.94999973 3.33333333,13.0166666 L3.33333333,26.9833342 C3.33333333,28.8000009 3.6499999,30.3833345 4.26666657,31.7166678 C5.69999993,34.8833344 8.76666665,36.6666667 13.0166666,36.6666667 L26.9833342,36.6666667 C33.0500011,36.6666667 36.6666667,33.0500011 36.6666667,26.9833342 L36.6666667,23.166666 L36.6666667,13.0166666 C36.6666667,6.94999973 33.0500011,3.33333333 26.9833342,3.33333333 L13.0166666,3.33333333 Z" id="path-1"></path>
        <mask id="mask-2" maskContentUnits="userSpaceOnUse" maskUnits="objectBoundingBox" x="0" y="0" width="33.3333333" height="33.3333333" fill="white">
            <use xlink:href="#path-1"></use>
        </mask>
    </defs>
    <g id="首页-消息" stroke="none" stroke-width="1" fill="none" fill-rule="evenodd">
        <g id="消息备份-4" transform="translate(-34, -694)">
            <g id="gallery" transform="translate(34, 694)">
                <path d="M4.26796873,31.71875 C3.81796872,30.7354167 3.53463542,29.61875 3.41796875,28.3854167 C3.53463542,29.6020834 3.85130202,30.7020826 4.30130204,31.6854159 L4.26796873,31.71875 Z" id="Vector" fill="#292D32" fill-rule="nonzero"></path>
                <path d="M26.9833342,3.33333333 C33.0500011,3.33333333 36.6666667,6.94999973 36.6666667,13.0166666 L36.6666667,26.9833342 C36.6666667,33.0500011 33.0500011,36.6666667 26.9833342,36.6666667 L13.0166666,36.6666667 C8.76666665,36.6666667 5.69999993,34.8833344 4.26666657,31.7166678 C3.6499999,30.3833345 3.33333333,28.8000009 3.33333333,26.9833342 L3.33333333,13.0166666 C3.33333333,6.94999973 6.94999973,3.33333333 13.0166666,3.33333333 Z M26.9833342,5.83333333 L13.0166666,5.83333333 C8.31666668,5.83333333 5.83333333,8.31666668 5.83333333,13.0166666 L5.83333333,26.9833342 C5.83333333,28.2500009 6.04999984,29.3333333 6.41666651,30.2666664 L12.6500003,26.0833327 C13.9833336,25.1833327 15.8666659,25.2833333 17.0499992,26.3166666 L17.6166662,26.7833328 C18.9166661,27.8999995 21.0166673,27.8999995 22.3166672,26.7833328 L29.2499987,20.8333333 C30.5499987,19.7166666 32.6500014,19.7166666 33.9500014,20.8333333 L34.1666667,21.0166661 L34.1666667,13.0166666 C34.1666667,8.31666668 31.6833341,5.83333333 26.9833342,5.83333333 Z" id="形状结合" fill="#F5F5F5"></path>
                <use id="Vector" stroke="#333333" mask="url(#mask-2)" stroke-width="6" stroke-dasharray="0,0" xlink:href="#path-1"></use>
                <path d="M29.2499987,20.8333333 L22.3166672,26.7833328 C21.0166673,27.8999995 18.9166661,27.8999995 17.6166662,26.7833328 L17.0499992,26.3166666 C15.8666659,25.2833333 13.9833336,25.1833327 12.6500003,26.0833327 L6.41666651,30.2666664 C6.04999984,29.3333333 5.83333333,28.2500009 5.83333333,26.9833342 L5.83333333,13.0166666 C5.83333333,8.31666668 8.31666668,5.83333333 13.0166666,5.83333333 L26.9833342,5.83333333 C31.6833341,5.83333333 34.1666667,8.31666668 34.1666667,13.0166666 L34.1666667,21.0166661 L33.9500014,20.8333333 C32.6500014,19.7166666 30.5499987,19.7166666 29.2499987,20.8333333 Z" id="Vector" fill="#333333"></path>
                <path d="M15.0018231,17.3018233 C12.8110935,17.3018233 11.0351562,15.525886 11.0351562,13.3351564 C11.0351562,11.1444269 12.8110935,9.36848958 15.0018231,9.36848958 C17.1925527,9.36848958 18.96849,11.1444269 18.96849,13.3351564 C18.96849,15.525886 17.1925527,17.3018233 15.0018231,17.3018233 Z" id="Vector" fill="#F5F5F5"></path>
                <path d="M40,0 L40,40 L0,40 L0,0 L40,0 Z" id="Vector" opacity="0"></path>
            </g>
        </g>
    </g>
</svg>