<?xml version="1.0" encoding="UTF-8"?>
<svg width="40px" height="40px" viewBox="0 0 40 40" version="1.1" xmlns="http://www.w3.org/2000/svg" xmlns:xlink="http://www.w3.org/1999/xlink">
    <title>camera</title>
    <g id="首页-消息" stroke="none" stroke-width="1" fill="none" fill-rule="evenodd">
        <g id="消息备份-4" transform="translate(-123, -694)">
            <g id="camera" transform="translate(123, 694)">
                <path d="M27.5836118,8.51666689 L26.383613,6.10000014 C25.6169463,4.58333343 23.6169457,3.33333333 21.9169458,3.33333333 L18.1002792,3.33333333 C16.3836126,3.33333333 14.3836124,4.58333343 13.6169457,6.10000014 L12.4169453,8.51666689 C11.9502786,9.41666692 11.016946,10 10.0002793,10 C6.38361255,10 3.5169459,13.0499995 3.75027923,16.6499996 L4.61694588,30.4166667 C4.81694588,33.8499999 6.66694601,36.6666667 11.266946,36.6666667 L28.7336127,36.6666667 C33.3336127,36.6666667 35.1669457,33.8499999 35.3836123,30.4166667 L36.2502797,16.6499996 C36.4836131,13.0499995 33.6169465,10 30.0002797,10 C28.9836131,10 28.0502785,9.41666692 27.5836118,8.51666689 Z M22.5002797,12.0833333 C23.1836131,12.0833333 23.7502797,12.65 23.7502797,13.3333333 C23.7502797,14.0166667 23.1836131,14.5833333 22.5002797,14.5833333 L17.5002797,14.5833333 C16.8169464,14.5833333 16.2502789,14.0166667 16.2502789,13.3333333 C16.2502789,12.65 16.8169464,12.0833333 17.5002797,12.0833333 L22.5002797,12.0833333 Z M14.3669454,24.5666663 C14.3669454,21.4499996 16.8836131,18.9333328 20.0002797,18.9333328 C23.1169464,18.9333328 25.6336133,21.4499996 25.6336133,24.5666663 C25.6336133,27.683333 23.1002798,30.2000014 20.0002797,30.2000014 C16.9002797,30.2000014 14.3669454,27.683333 14.3669454,24.5666663 Z" id="Vector" fill="#333333"></path>
                <path d="M40,0 L40,40 L0,40 L0,0 L40,0 Z" id="Vector" opacity="0"></path>
            </g>
        </g>
    </g>
</svg>